<svg xmlns="http://www.w3.org/2000/svg" viewBox="0 0 512 512"><path d="M501.961 76.329H375.236c-26.654 0-48.339 21.689-48.339 48.349 0 15.588-12.683 28.269-28.27 28.269h-14.979c-15.588 0-28.27-12.682-28.27-28.269 0-12.909-5.03-25.051-14.159-34.18-9.124-9.137-21.266-14.168-34.19-14.168H10.039C4.495 76.329 0 80.824 0 86.368v339.264c0 5.544 4.495 10.039 10.039 10.039h491.922c5.545 0 10.039-4.496 10.039-10.039V86.368c0-5.544-4.495-10.039-10.039-10.039zM20.078 96.407h186.95c7.555 0 14.651 2.94 19.987 8.283 5.342 5.341 8.283 12.441 8.283 19.987 0 10.549 3.406 20.312 9.163 28.269H20.078V96.407zm471.844 319.187H20.078V173.026h278.548c26.66 0 48.349-21.689 48.349-48.348 0-15.588 12.677-28.27 28.26-28.27h116.686v319.186z"/><path d="M432.791 371.452h-73.688c-5.545 0-10.039 4.496-10.039 10.039 0 5.544 4.495 10.039 10.039 10.039h73.688c5.545 0 10.039-4.496 10.039-10.039 0-5.544-4.495-10.039-10.039-10.039zM459.103 371.452c-12.919 0-12.942 20.078 0 20.078 12.92 0 12.941-20.078 0-20.078z"/></svg>