<svg xmlns="http://www.w3.org/2000/svg" viewBox="0 0 512 512"><path d="M395.133 0H116.867C90.938 0 69.843 21.095 69.843 47.024v417.953c0 25.928 21.095 47.024 47.024 47.024h278.267c25.928 0 47.024-21.095 47.024-47.024V47.024C442.157 21.095 421.062 0 395.133 0zm26.946 464.976c0 14.858-12.087 26.945-26.945 26.945H116.867c-14.858 0-26.945-12.087-26.945-26.945V47.024c0-14.858 12.087-26.945 26.945-26.945h278.267c14.858 0 26.945 12.087 26.945 26.945v417.952z"/><path d="M349.214 47.184H162.786c-14.783 0-28.684 5.761-39.143 16.222-10.462 10.46-16.223 24.362-16.223 39.144 0 30.534 24.837 55.376 55.366 55.376h186.428c14.794 0 28.697-5.763 39.143-16.221 10.462-10.461 16.223-24.366 16.223-39.155 0-30.529-24.837-55.366-55.366-55.366zm24.942 80.327c-6.658 6.666-15.516 10.336-24.942 10.336H162.786c-19.458 0-35.288-15.834-35.288-35.297 0-9.418 3.672-18.277 10.342-24.946 6.668-6.669 15.528-10.341 24.945-10.341h186.428c19.457 0 35.288 15.831 35.288 35.288.001 9.424-3.671 18.287-10.345 24.96zM201.407 310.543h-51.19c-5.544 0-10.039 4.496-10.039 10.039s4.496 10.039 10.039 10.039h51.19c5.544 0 10.039-4.496 10.039-10.039s-4.495-10.039-10.039-10.039zM351.363 291.308h-51.19c-5.544 0-10.039 4.496-10.039 10.039s4.496 10.039 10.039 10.039h51.19c5.544 0 10.039-4.496 10.039-10.039s-4.495-10.039-10.039-10.039zM351.363 329.788h-51.19c-5.544 0-10.039 4.496-10.039 10.039 0 5.544 4.496 10.039 10.039 10.039h51.19c5.544 0 10.039-4.496 10.039-10.039 0-5.543-4.495-10.039-10.039-10.039zM350.961 397.191c-3.92-3.92-10.276-3.92-14.198 0l-36.191 36.191c-3.92 3.92-3.92 10.277 0 14.198a10.01 10.01 0 0 0 7.099 2.94c2.569 0 5.138-.981 7.099-2.94l36.191-36.191c3.92-3.92 3.92-10.277 0-14.198zM201.407 216.245h-15.561v-15.551c0-5.544-4.496-10.039-10.039-10.039s-10.039 4.496-10.039 10.039v15.551h-15.551c-5.544 0-10.039 4.496-10.039 10.039s4.496 10.039 10.039 10.039h15.551v15.55c0 5.544 4.496 10.039 10.039 10.039s10.039-4.496 10.039-10.039v-15.55h15.561c5.544 0 10.039-4.496 10.039-10.039s-4.495-10.039-10.039-10.039zM190.005 422.386l11-10.997c3.922-3.921 3.922-10.278.002-14.198-3.921-3.919-10.276-3.919-14.198 0l-11.002 10.999-11.002-10.999c-3.921-3.919-10.276-3.919-14.198 0-3.92 3.92-3.92 10.277 0 14.198l11 10.997-10.998 10.995c-3.921 3.919-3.923 10.275-.004 14.198a10.008 10.008 0 0 0 7.101 2.943c2.568 0 5.137-.98 7.097-2.938l11.004-11.001 11.004 11.001a10.01 10.01 0 0 0 7.097 2.938c2.571 0 5.14-.982 7.101-2.943 3.919-3.922 3.917-10.278-.004-14.198l-11-10.995zM361.783 191.659h-37.336a10.039 10.039 0 0 0-9.692 7.422l-7.644 28.301-9.106-13.148c-3.157-4.559-9.413-5.696-13.969-2.537-4.558 3.157-5.694 9.411-2.537 13.969l21.414 30.921a10.036 10.036 0 0 0 9.961 4.177 10.04 10.04 0 0 0 7.984-7.275l11.276-41.75h29.649c5.544 0 10.039-4.496 10.039-10.039.001-5.546-4.494-10.041-10.039-10.041z"/><path d="M315.528 107.42H241.84c-5.544 0-10.039 4.496-10.039 10.039 0 5.544 4.495 10.039 10.039 10.039h73.688c5.544 0 10.039-4.496 10.039-10.039 0-5.544-4.496-10.039-10.039-10.039zM341.84 107.42c-12.919 0-12.942 20.078 0 20.078 12.92 0 12.941-20.078 0-20.078z"/></svg>