<svg xmlns="http://www.w3.org/2000/svg" viewBox="0 0 512 512"><path d="M201.47 440.387h-73.687c-5.545 0-10.039 4.495-10.039 10.039s4.495 10.039 10.039 10.039h73.687c5.545 0 10.039-4.495 10.039-10.039s-4.494-10.039-10.039-10.039zM227.783 440.387c-12.919 0-12.941 20.078 0 20.078 12.919.001 12.94-20.078 0-20.078z"/><path d="M444.938 0H182.583c-.047 0-.091.006-.139.007a9.965 9.965 0 0 0-.847.043c-.167.016-.329.047-.494.071-.16.023-.319.041-.478.073-.18.036-.354.084-.531.13-.141.036-.282.066-.422.108-.172.052-.338.116-.506.177-.141.051-.283.097-.422.155-.158.065-.308.142-.462.214-.144.068-.288.131-.43.207-.147.078-.286.168-.429.253-.138.083-.28.162-.416.252-.156.104-.302.22-.452.332-.112.084-.228.163-.338.253-.257.211-.504.433-.739.668L59.964 118.461a9.716 9.716 0 0 0-.667.738c-.091.111-.172.23-.258.344-.11.147-.224.291-.327.445-.093.14-.174.283-.259.426-.083.139-.17.274-.246.418-.077.145-.143.294-.213.442-.07.15-.145.296-.209.449-.059.143-.106.289-.159.434-.059.164-.122.325-.173.493-.043.145-.075.291-.112.437-.043.172-.091.34-.125.515-.033.167-.052.335-.077.504-.023.156-.052.309-.067.467-.03.306-.044.614-.046.922 0 .022-.003.044-.003.067v376.401c0 5.545 4.495 10.039 10.039 10.039h377.876c5.544 0 10.039-4.495 10.039-10.039V10.039C454.977 4.495 450.482 0 444.938 0zM172.544 34.276v81.245H91.299l81.245-81.245zm262.355 457.646H77.101V135.6h105.482c5.545 0 10.039-4.495 10.039-10.039V20.078h242.276v471.844z"/></svg>