<svg xmlns="http://www.w3.org/2000/svg" viewBox="0 0 512 512"><path d="M453.806 76.806l-36.483-36.484c-3.909-3.908-10.246-3.908-14.154 0-3.908 3.908-3.909 10.246 0 14.154l36.483 36.484a9.976 9.976 0 0 0 7.077 2.932 9.979 9.979 0 0 0 7.077-2.932c3.909-3.909 3.91-10.246 0-14.154zM465.279 92.423c-12.88 0-12.901 20.018 0 20.018 12.881 0 12.902-20.018 0-20.018z"/><path d="M498.575 65.896l-52.463-52.453C437.451 4.774 425.932 0 413.677 0s-23.774 4.774-32.434 13.44L351.11 43.562l-.005.005L40.712 353.96a9.958 9.958 0 0 0-2.636 4.706L.36 499.4a10.012 10.012 0 0 0 2.59 9.669 10.012 10.012 0 0 0 9.667 2.59l140.944-37.773c.029-.008.055-.021.084-.028.392-.108.78-.237 1.159-.394.026-.011.05-.024.075-.035.338-.143.669-.31.993-.492.09-.051.178-.104.266-.157.26-.157.513-.328.762-.511.084-.062.17-.12.251-.185a9.71 9.71 0 0 0 .895-.787l.001-.001 310.387-310.377.005-.005 30.138-30.139c17.873-17.888 17.873-46.99-.002-64.879zm-140.393-1.097l37.439 37.442L99.386 398.477l-37.441-37.44L358.182 64.799zM24.183 487.835l9.911-36.981 27.07 27.07-36.981 9.911zm59.307-15.894l-43.413-43.413 12.903-48.145 39.32 39.32.007.008.008.007 39.321 39.321-48.146 12.902zm67.481-21.877l-37.431-37.431 296.235-296.235 37.434 37.437-296.238 296.229zm333.452-333.442l-23.058 23.059-44.462-44.467c-.016-.016-.03-.034-.046-.051s-.034-.03-.051-.046l-44.467-44.471L395.4 27.592c4.881-4.884 11.372-7.575 18.277-7.575 6.905 0 13.396 2.69 18.281 7.579l52.463 52.452c10.077 10.084 10.077 26.492.002 36.574z"/></svg>